<svg id="Capa_1" enable-background="new 0 0 497 497" height="512" viewBox="0 0 497 497" width="512" xmlns="http://www.w3.org/2000/svg"><g><path d="m407 136h-30v285h30c16.568 0 30-13.431 30-30v-225c0-16.569-13.432-30-30-30z" fill="#1f727b"/><path d="m407 391v-225c0-16.569-13.432-30-30-30h-347c-16.568 0-30 13.431-30 30v45l30 30-30 30v120c0 16.569 13.432 30 30 30h347c16.568 0 30-13.431 30-30z" fill="#2c9091"/><path d="m0 211h287v60h-287z" fill="#234b72"/><path d="m467 76h-30v285h30c16.568 0 30-13.431 30-30v-225c0-16.569-13.431-30-30-30z" fill="#43b7d9"/><path d="m467 331v-225c0-16.569-13.432-30-30-30h-347c-16.568 0-30 13.431-30 30v225c0 16.569 13.432 30 30 30h347c16.569 0 30-13.431 30-30z" fill="#54d8ff"/><path d="m212 136h-30v75h30c8.284 0 15-6.716 15-15v-45c0-8.284-6.716-15-15-15z" fill="#ffe341"/><path d="m197 196v-45c0-8.284-6.716-15-15-15h-47c-8.284 0-15 6.716-15 15v45c0 8.284 6.716 15 15 15h47c8.284 0 15-6.716 15-15z" fill="#fff1a0"/><path d="m407 271-30-15 30-15h30v30z" fill="#3295b2"/><path d="m120 241h287v30h-287z" fill="#43b7d9"/><path d="m330 308.5h-210c-4.143 0-7.5-3.358-7.5-7.5s3.357-7.5 7.5-7.5h210c4.143 0 7.5 3.358 7.5 7.5s-3.357 7.5-7.5 7.5z" fill="#234b72"/></g></svg>