<?xml version="1.0" encoding="iso-8859-1"?>
<!-- Generator: Adobe Illustrator 19.0.0, SVG Export Plug-In . SVG Version: 6.00 Build 0)  -->
<svg version="1.1" id="Capa_1" xmlns="http://www.w3.org/2000/svg" xmlns:xlink="http://www.w3.org/1999/xlink" x="0px" y="0px"
	 viewBox="0 0 512 512" style="enable-background:new 0 0 512 512;" xml:space="preserve">
<g>
	<g>
		<path d="M239.11,266.301c-0.13-4.143-3.602-7.405-7.745-7.264c-4.143,0.14-7.385,3.602-7.254,7.745
			c7.079,219.569,6.738,206.624,6.624,208.336c-0.24,4.143,2.912,7.685,7.054,7.935c3.974,0.271,7.68-2.817,7.925-7.054
			C245.905,473.141,246.162,485.897,239.11,266.301z"/>
	</g>
</g>
<g>
	<g>
		<path d="M229.664,496.341c-2.121-3.562-6.724-4.743-10.286-2.622c-3.562,2.121-7.655,3.232-11.837,3.242
			c-13.348,0-23.756-11.247-23.224-23.984l5.153-159.747c0.13-4.143-3.122-7.615-7.264-7.745c-4.163-0.16-7.605,3.112-7.735,7.254
			c-4.643,144.123-5.173,160.061-5.173,160.997c0,29.638,32.415,47.925,57.745,32.89
			C230.605,504.505,231.775,499.903,229.664,496.341z"/>
	</g>
</g>
<g>
	<g>
		<path d="M375.823,479.09l-1.391-55.023c-0.11-4.073-3.442-7.314-7.505-7.314h-0.19c-4.143,0.11-7.414,3.552-7.314,7.695
			c1.493,58.668,1.411,55.376,1.411,55.634c0,9.316-7.735,16.9-17.23,16.9c-9.93,0-17.609-8.192-17.22-17.511l3.522-138.654
			c0.1-4.143-3.172-7.585-7.314-7.695h-0.2c-4.052,0-7.395,3.232-7.495,7.314c-2.284,90.101-3.532,138.62-3.532,139.645
			c0,17.591,14.459,31.909,32.24,31.909C361.803,511.99,376.419,496.994,375.823,479.09z"/>
	</g>
</g>
<g>
	<g>
		<path d="M288.59,145.588c0-0.29-0.02-0.58-0.05-0.871l-10.036-86.002c-0.48-4.122-4.213-7.074-8.325-6.584
			c-4.112,0.48-7.064,4.203-6.584,8.325l9.986,85.552c-0.2,22.163-15.98,40.675-36.892,45.087
			c-6.676,1.417-11.17,0.898-14.989,1.011c-33.307-0.29-35.459,0.655-43.306-1.011c-20.913-4.413-36.692-22.924-36.892-45.087
			L156.16,20.382c0.03-0.29,0.05-0.58,0.05-0.871c0-2.902,1.581-4.503,2.101-4.503h0.2c2.762,0,5.003,2.241,5.003,5.003v43.727
			c0,4.153,3.362,7.505,7.505,7.505s7.505-3.352,7.505-7.505V20.012C178.523,8.975,169.548,0,158.511,0h-0.2
			c-9.296,0-16.88,8.495-17.11,19.031l-14.659,125.686c-0.04,0.29-0.05,0.58-0.05,0.87c0,30.478,22.284,55.854,51.411,60.687
			l-2.471,76.466c-0.13,4.143,3.122,7.605,7.264,7.745h0.25c4.022,0,7.364-3.202,7.495-7.264l2.451-76.106h29.298l0.951,29.668
			c0.14,4.143,3.602,7.414,7.745,7.254c4.142-0.13,7.394-3.602,7.264-7.745l-0.971-30.018
			C266.306,201.442,288.59,176.067,288.59,145.588z"/>
	</g>
</g>
<g>
	<g>
		<path d="M275.022,28.898l-1.151-9.866C273.651,8.495,266.066,0,256.771,0h-0.2c-11.037,0-20.012,8.975-20.012,20.012v82.05
			c0,2.442-2.061,4.503-4.503,4.503c-0.16,0-0.31-0.01-0.46-0.02c-2.271-0.23-4.042-2.361-4.042-4.853V20.012
			C227.553,8.975,218.577,0,207.541,0s-20.012,8.975-20.012,20.012v82.05c0,2.442-2.061,4.503-4.503,4.503
			c-0.16,0-0.31-0.01-0.46-0.02c-2.271-0.23-4.042-2.361-4.042-4.853v-7.935c0-4.143-3.362-7.505-7.505-7.505
			s-7.505,3.362-7.505,7.505v7.935c0,10.296,7.555,18.801,17.591,19.792c0.64,0.06,1.281,0.09,1.921,0.09
			c10.757,0,19.512-8.755,19.512-19.512v-82.05c0-2.762,2.241-5.003,5.003-5.003s5.003,2.241,5.003,5.003v81.679
			c0,10.296,7.555,18.801,17.591,19.792c0.64,0.06,1.281,0.09,1.921,0.09c10.757,0,19.512-8.755,19.512-19.512v-82.05
			c0-2.762,2.241-5.003,5.003-5.003h0.2c0.52,0,2.101,1.601,2.101,4.503c0,0.29,0.01,0.58,0.05,0.87l1.191,10.256
			c0.48,4.112,4.223,7.074,8.325,6.584C272.56,36.742,275.502,33.01,275.022,28.898z"/>
	</g>
</g>
<g>
	<g>
		<path d="M378.004,114.129c-4.143,0-7.505,3.362-7.505,7.505v146.739h-0.02H355.46c-15.821-0.226-18.606,0.569-23.694-0.881
			c-7.404-2.091-13.098-7.755-14.639-14.769c-0.29-1.251-0.43-2.542-0.43-3.862V123.585c0-4.143-3.352-7.505-7.505-7.505
			c-4.143,0-7.505,3.362-7.505,7.505v125.276c0,11.377,5.844,21.493,14.829,27.777l-0.861,33.79c-0.1,4.143,3.172,7.585,7.314,7.695
			h0.19c4.062,0,7.394-3.231,7.505-7.314l0.71-28.017c5.382,0.962,7.807,0.44,24.465,0.59l2.822,111.057
			c0.1,4.082,3.442,7.314,7.495,7.314h0.2c4.143-0.11,7.414-3.552,7.314-7.695l-2.812-110.677h7.144
			c4.143,0,7.505-3.362,7.505-7.505V121.634C385.508,117.491,382.146,114.129,378.004,114.129z"/>
	</g>
</g>
<g>
	<g>
		<path d="M378.004,0.38c-23.694,0-43.436,8.555-57.105,24.745c-23.436,27.785-18.575,63.318-19.212,68.441
			c0,4.153,3.362,7.505,7.505,7.505c4.152,0,7.505-3.352,7.505-7.505v-9.806c0-31.159,14.309-64.329,53.803-68.031v75.886
			c0,4.143,3.362,7.505,7.505,7.505s7.505-3.362,7.505-7.505V7.885C385.508,3.732,382.146,0.38,378.004,0.38z"/>
	</g>
</g>
<g>
</g>
<g>
</g>
<g>
</g>
<g>
</g>
<g>
</g>
<g>
</g>
<g>
</g>
<g>
</g>
<g>
</g>
<g>
</g>
<g>
</g>
<g>
</g>
<g>
</g>
<g>
</g>
<g>
</g>
</svg>
